<?xml version="1.0" encoding="UTF-8"?>
<svg id="Layer_1" data-name="Layer 1" xmlns="http://www.w3.org/2000/svg" version="1.1" viewBox="0 0 744.4 1172.4">
  <defs>
    <style>
      .cls-1 {
        fill: #492b6b;
        fill-rule: evenodd;
        stroke-width: 0px;
      }
    </style>
  </defs>
  <g>
    <path class="cls-1" d="M308.6,124.1c0,10-8.1,18.2-18.2,18.2s-18.2-8.1-18.2-18.2V37.8c0-10,8.1-18.2,18.2-18.2s18.2,8.1,18.2,18.2v86.3Z"/>
    <path class="cls-1" d="M431,189.9c-7.1,7.1-18.6,7.1-25.7,0-7.1-7.1-7.1-18.6,0-25.7l61-61c7.1-7.1,18.6-7.1,25.7,0,7.1,7.1,7.1,18.6,0,25.7l-61,61Z"/>
    <path class="cls-1" d="M471,322.9c-10,0-18.2-8.1-18.2-18.2s8.1-18.2,18.2-18.2h86.3c10,0,18.2,8.1,18.2,18.2s-8.1,18.2-18.2,18.2h-86.3Z"/>
    <path class="cls-1" d="M175.5,164.2c7.1,7.1,7.1,18.6,0,25.7-7.1,7.1-18.6,7.1-25.7,0l-61-61c-7.1-7.1-7.1-18.6,0-25.7,7.1-7.1,18.6-7.1,25.7,0l61,61Z"/>
    <path class="cls-1" d="M109.7,286.6c10,0,18.2,8.1,18.2,18.2s-8.1,18.2-18.2,18.2H23.4c-10,0-18.2-8.1-18.2-18.2s8.1-18.2,18.2-18.2h86.3Z"/>
  </g>
  <path class="cls-1" d="M739.6,811.8c-4.2,94.6-27.4,174.4-76.1,234.3-49.2,60.6-123,99.8-227.8,112.3h0c-53.1,8.1-98.8,2.2-136.5-19.4-38.1-21.8-66.7-58.9-84.9-112.6-21.8-57.8-65.4-109.3-108.9-160.8-22.9-27.1-45.8-54.1-66.5-83.1l-.6-.9c-25.1-38.7-34.7-72-33.5-99,.6-15.3,4.6-28.7,11.1-40.1,6.7-11.7,15.9-21.2,27-28.4,17.4-11.3,39.2-16.7,62.3-16,24.4-.9,58.7,26.2,93,53.3l2,1.6v-371.9c0-39.6,23.8-65.8,53.8-77.4,10.8-4.2,22.5-6.3,34.1-6.4,11.7,0,23.3,1.9,34.1,6.1,28.9,11.3,51.3,36.8,51.3,77.7v170.6c8.7-3.4,17.9-5.4,27.2-5.9,13.6-.7,27.5,1.8,40.4,7.7,19.3,8.8,36.1,25,45.6,49.1,3.8-1.7,7.7-3.2,11.6-4.3,14-4.1,28.9-4.4,43.4-1.2,14.1,3.1,27.8,9.6,39.7,19,12.2,9.7,22.7,22.7,29.9,38.4,5.4-3,11-5.4,16.7-7.1,14.5-4.3,29.6-4.4,43.9-.6,14,3.7,27.1,10.9,38.1,21.3,19.1,18.1,31.6,45.6,29.7,79.4v164.5h-.1ZM622.2,1012.4c40.7-50.1,60.3-119,64.1-201.8h0v-165.2c1.3-17.2-4.3-30.6-13-38.9-4.3-4.1-9.4-6.9-14.7-8.3-5-1.3-10.2-1.3-15.2.2-9.1,2.7-18,10.8-24.1,25.3l-51.2-12.3c1.9-25.2-7-43.4-19.8-53.6-5.6-4.4-11.8-7.4-18-8.8-5.9-1.3-11.7-1.2-17.1.3-9.1,2.6-17.1,10.3-21,23.7l-52.4-7.5v-34.5c-3.4-15.4-11.4-24.9-20.8-29.2-4.8-2.2-10.2-3.1-15.5-2.8-5.2.3-10.3,1.8-14.8,4.3-8.3,4.8-14.4,14-15.2,27.2l-53.4-1.6v-247.9c0-15.1-7.4-24.2-17-27.9-4.5-1.8-9.6-2.6-14.6-2.6-5.1,0-10.3,1-15.1,2.9-10.9,4.2-19.5,13.6-19.5,27.6v475.7l-41.7-28.1c-13.3-9-30.1-22.2-46.9-35.5-26.8-21.1-53.1-42.4-53.4-42.4l-7,.6c-12.9-.5-24.4,1.9-32.8,7.4-4,2.6-7.3,5.9-9.6,10-2.4,4.3-3.9,9.6-4.2,15.9-.7,16.7,6.4,39,24.5,67.2,19,26.7,41.3,52.9,63.5,79.2,46.7,55.2,93.4,110.3,118.4,177.4l.3.8c13.7,40.6,34.2,68,60.9,83.3,27,15.5,61.5,19.4,102.7,12.9l.9-.2c89.9-10.7,152.3-43.1,192.7-92.8Z"/>
  <path class="cls-1" d="M739.6,811.8c-4.2,94.6-27.4,174.4-76.1,234.3-49.2,60.6-123,99.8-227.8,112.3h0c-53.1,8.1-98.8,2.2-136.5-19.4-38.1-21.8-66.7-58.9-84.9-112.6-21.8-57.8-65.4-109.3-108.9-160.8-22.9-27.1-45.8-54.1-66.5-83.1l-.6-.9c-25.1-38.7-34.7-72-33.5-99,.6-15.3,4.6-28.7,11.1-40.1,6.7-11.7,15.9-21.2,27-28.4,17.4-11.3,39.2-16.7,62.3-16,24.4-.9,58.7,26.2,93,53.3l2,1.6v-371.9c0-39.6,23.8-65.8,53.8-77.4,10.8-4.2,22.5-6.3,34.1-6.4,11.7,0,23.3,1.9,34.1,6.1,28.9,11.3,51.3,36.8,51.3,77.7v170.6c8.7-3.4,17.9-5.4,27.2-5.9,13.6-.7,27.5,1.8,40.4,7.7,19.3,8.8,36.1,25,45.6,49.1,3.8-1.7,7.7-3.2,11.6-4.3,14-4.1,28.9-4.4,43.4-1.2,14.1,3.1,27.8,9.6,39.7,19,12.2,9.7,22.7,22.7,29.9,38.4,5.4-3,11-5.4,16.7-7.1,14.5-4.3,29.6-4.4,43.9-.6,14,3.7,27.1,10.9,38.1,21.3,19.1,18.1,31.6,45.6,29.7,79.4v164.5h-.1ZM622.2,1012.4c40.7-50.1,60.3-119,64.1-201.8h0v-165.2c1.3-17.2-4.3-30.6-13-38.9-4.3-4.1-9.4-6.9-14.7-8.3-5-1.3-10.2-1.3-15.2.2-9.1,2.7-18,10.8-24.1,25.3l-51.2-12.3c1.9-25.2-7-43.4-19.8-53.6-5.6-4.4-11.8-7.4-18-8.8-5.9-1.3-11.7-1.2-17.1.3-9.1,2.6-17.1,10.3-21,23.7l-52.4-7.5v-34.5c-3.4-15.4-11.4-24.9-20.8-29.2-4.8-2.2-10.2-3.1-15.5-2.8-5.2.3-10.3,1.8-14.8,4.3-8.3,4.8-14.4,14-15.2,27.2l-53.4-1.6v-247.9c0-15.1-7.4-24.2-17-27.9-4.5-1.8-9.6-2.6-14.6-2.6-5.1,0-10.3,1-15.1,2.9-10.9,4.2-19.5,13.6-19.5,27.6v475.7l-41.7-28.1c-13.3-9-30.1-22.2-46.9-35.5-26.8-21.1-53.1-42.4-53.4-42.4l-7,.6c-12.9-.5-24.4,1.9-32.8,7.4-4,2.6-7.3,5.9-9.6,10-2.4,4.3-3.9,9.6-4.2,15.9-.7,16.7,6.4,39,24.5,67.2,19,26.7,41.3,52.9,63.5,79.2,46.7,55.2,93.4,110.3,118.4,177.4l.3.8c13.7,40.6,34.2,68,60.9,83.3,27,15.5,61.5,19.4,102.7,12.9l.9-.2c89.9-10.7,152.3-43.1,192.7-92.8Z"/>
  <path class="cls-1" d="M320,528.9c0-14.8,12-26.8,26.8-26.8s26.8,12,26.8,26.8v114.3c0,14.8-12,26.8-26.8,26.8s-26.8-12-26.8-26.8v-114.3Z"/>
  <path class="cls-1" d="M439.7,565.5c0-14.8,12-26.8,26.8-26.8s26.8,12,26.8,26.8v125.5c0,14.8-12,26.8-26.8,26.8s-26.8-12-26.8-26.8v-125.5Z"/>
  <path class="cls-1" d="M567.9,613.4c0-14.8,12-26.8,26.8-26.8s26.8,12,26.8,26.8v125.5c0,14.8-12,26.8-26.8,26.8s-26.8-12-26.8-26.8v-125.5Z"/>
</svg>