<?xml version="1.0" encoding="UTF-8"?>
<svg id="Layer_1" data-name="Layer 1" xmlns="http://www.w3.org/2000/svg" version="1.1" viewBox="0 0 612 167.5">
  <defs>
    <style>
      .cls-1 {
        fill: #00b3b6;
      }

      .cls-1, .cls-2, .cls-3, .cls-4, .cls-5, .cls-6, .cls-7, .cls-8, .cls-9, .cls-10 {
        stroke-width: 0px;
      }

      .cls-2 {
        fill: #bcc632;
      }

      .cls-3 {
        fill: #f05665;
      }

      .cls-4 {
        fill: #f8d345;
      }

      .cls-5 {
        fill: #5fc08b;
      }

      .cls-6 {
        fill: #f79e46;
      }

      .cls-7 {
        fill: #4764ae;
      }

      .cls-8 {
        fill: #50a7dd;
      }

      .cls-9 {
        fill: #7572b5;
      }

      .cls-10 {
        fill: #492b6b;
      }
    </style>
  </defs>
  <path class="cls-10" d="M77.5,92.7c0,14.1-10.1,22.4-22.8,22.4h-19.7v24.6h-8.3v-69.4h28c12.7,0,22.8,8.3,22.8,22.4ZM69.2,92.7c0-8.9-5.9-14.3-14.5-14.3h-19.7v28.6h19.7c8.6,0,14.5-5.7,14.5-14.3Z"/>
  <path class="cls-2" d="M96.2,65v102.4h-8.3v-102.5h8.3Z"/>
  <path class="cls-7" d="M154.9,86.4v53.4h-7.6s-.7-7.1-.7-10.6v-5.8c-1.9,8.8-6.9,17.4-17.9,17.4s-23-11.5-23-27.6,10.5-27.9,24-27.9,15,6.2,16.8,15.2v-14.1h8.3ZM146.5,113.2c0-11.8-5.2-19.6-15.8-19.6s-16.7,8.2-16.7,19.6,7,19.5,16.7,19.5,15.8-8.8,15.8-19.5Z"/>
  <path class="cls-6" d="M210.4,86.4l-29.5,74.8h-8.8l9.6-22.1-20.3-52.6h8.9l15.7,42.3,15.6-42.3h8.9,0Z"/>
  <path class="cls-9" d="M262.2,95.5c-5.1,0-10.5-2-14.6-4.1,5.7,4.1,8.3,10,8.3,17,0,14.3-10.2,22.8-21.7,22.8-7.6.5-12,1.2-12,4.8s1.6,3.7,4.9,3.7h10.8c11,0,20.2,4.1,20.2,16.9v10.8h-8.3v-8.7c0-7.5-3.9-10.9-11.7-10.9h-10.4c-9.4,0-13.8-3.3-13.8-9.1s6.5-9.2,12.5-9c-7.9-3-14-10.5-14-21.3s10.3-23.2,21.8-23.2,4.5.4,6.6,1.1h21.4c0,0,0,9.1,0,9.1h0ZM247.6,108.5c0-9.5-6.4-15-13.3-15s-13.5,5.4-13.5,15,6.5,14.8,13.5,14.8,13.3-5.2,13.3-14.8Z"/>
  <path class="cls-1" d="M294.8,85.3v8.6c-11.5,0-15.6,10.3-17,15v30.9h-8.3v-53.4h8.3v14.5c1.5-6,5.9-15.6,17-15.6h0Z"/>
  <path class="cls-8" d="M297.9,113.2c0-17,12.3-27.9,25.9-27.9s25.6,10.8,25.6,27.9-12.2,27.6-25.6,27.6-25.9-10.5-25.9-27.6h0ZM341,113.2c0-12.4-8.6-19.7-17.3-19.7s-17.5,7.2-17.5,19.7,8.8,19.5,17.5,19.5,17.3-7,17.3-19.5Z"/>
  <path class="cls-5" d="M402.2,86.4v53.4h-8.3v-17.8c-1.4,7-5.3,18.8-17.9,18.8s-18.4-4-18.4-18.9v-35.6h8.3v33.5c0,9.6,5,12.6,11.6,12.6,11.2,0,15.1-9.9,16.3-14.8v-31.2h8.3,0Z"/>
  <path class="cls-4" d="M457.8,104v63.6h-8.3v-61.5c0-8.2-3.9-12.4-11.4-12.4s-14.5,5.8-16.5,14.3v31.7h-8.3v-53.4h8.3v15.2c2.4-10,9.5-16.3,18.1-16.3s18.2,7.1,18.2,18.7Z"/>
  <path class="cls-3" d="M515.2,65v74.8h-7.6s-.7-7.1-.7-10.6v-5.8c-1.9,8.8-6.9,17.4-17.9,17.4s-23-11.5-23-27.6,9.6-27.9,23-27.9,16,6.3,17.9,15.3v-35.6h8.3ZM506.9,113.2c0-11.8-5.2-19.8-15.8-19.8s-16.7,8.3-16.7,19.8,7,19.5,16.7,19.5,15.8-8.8,15.8-19.5Z"/>
  <g>
    <path class="cls-10" d="M554.6,98.6c-7.6,0-12.1-5.4-12.1-12.3v-10.6h-13.3v-4.5h37.5v15.1c0,6.9-4.5,12.3-12.1,12.3h0ZM554.6,94.1c4.8,0,7.7-3.2,7.7-7.8v-10.6h-15.5v10.6c0,4.6,3.1,7.8,7.7,7.8h0Z"/>
    <path class="cls-10" d="M558.1,127.4h-28.8v-4.1s3.9-.4,5.7-.4h3.1c-4.8-1-9.4-3.7-9.4-9.7s6.2-12.4,14.9-12.4,15,5.7,15,13-3.4,8.1-8.2,9.1h7.6v4.5h0ZM543.6,122.9c6.4,0,10.6-2.8,10.6-8.5s-4.4-9-10.6-9-10.5,3.8-10.5,9,4.8,8.5,10.5,8.5Z"/>
    <path class="cls-10" d="M569.6,138.5h-40.4v-4.5h40.4v4.5Z"/>
  </g>
  <g>
    <path class="cls-10" d="M532.8,33.6v17.6h24.8v-1c0-5.4,0-10.8,0-16.2,0-.6.1-1,.7-1.4,1.7-1.2,2.3-3,2.3-5.1,0-8.7,0-17.4,0-26V0h5.8v1.3c0,2.7,0,5.4,0,8.1,0,.6.2.9.8,1,5.8.9,11.6,1.8,17.4,2.7.2,0,.6.5.6.7,0,2.6,0,5.2,0,7.8,0,3-2.5,5.4-5.6,5.5-1.2,0-2.4,0-3.8,0v26.7c0,3.2-1.8,5.5-4.8,6.1-.4,0-.8,0-1.2,0h-40c-3.3,0-5.8-2.2-5.9-5.5-.1-5.1-.1-10.2,0-15.4,0-3.2,2.6-5.4,5.8-5.5.9,0,1.8,0,2.8,0h0Z"/>
    <path class="cls-10" d="M551.9,45.4h-13.2v-11.8h13.2v11.8Z"/>
    <path class="cls-10" d="M522.6,30.5c-3.3,2.9-4.5,6.5-4.1,10.8-.3,0-.5.1-.7.1-1.7,0-3.5,0-5.2,0-1.9,0-3.5-1.3-4-3.1-.5-1.8.3-3.6,1.8-4.7.4-.3.8-.7,1-1.2,1.1-2.4,2.9-3.9,5.5-4.2,2.2-.3,4.1.5,5.7,2.2h0Z"/>
  </g>
</svg>