<?xml version="1.0" encoding="UTF-8"?>
<svg id="Layer_1" data-name="Layer 1" xmlns="http://www.w3.org/2000/svg" version="1.1" viewBox="0 0 100 100">
  <defs>
    <style>
      .cls-1 {
        fill: none;
        stroke: #fff;
        stroke-miterlimit: 10;
        stroke-width: 3px;
      }

      .cls-2 {
        fill: #50a6dc;
      }

      .cls-2, .cls-3 {
        stroke-width: 0px;
      }

      .cls-3 {
        fill: #fff;
      }
    </style>
  </defs>
  <circle class="cls-1" cx="50" cy="50" r="50"/>
  <circle class="cls-3" cx="50" cy="50" r="44.8"/>
  <g>
    <path class="cls-2" d="M63.9,15.1v6.8c0,.4.2.5.5.6,4.1.6,8.3,1.3,12.4,1.9.4,0,.6.2.6.7v5c0,2.6-1.8,4.2-4.3,4.3h-2.4v19.1c0,2.2-1.3,3.8-3.4,4.3h-29.1c-2.5,0-4.3-1.6-4.3-4.1v-10.4c0-2.4,1.8-4.1,4.3-4.1h1.9v12.5h17.6v-12.3c0-.4,0-.7.5-1,1.3-.9,1.7-2.2,1.7-3.7V15.2h4.1,0Z"/>
    <path class="cls-2" d="M53.5,47.4h-9.4v-8.4h9.4v8.4Z"/>
    <path class="cls-2" d="M32.7,36.8c-2.4,2-3.2,4.7-2.9,7.7-1.7,0-3.2,0-4.8,0-1.2,0-2-1-2.3-2.2s.2-2.5,1.3-3.1c.4-.2.6-.5.8-.9,1.3-3.3,5.7-4,7.9-1.3v-.2Z"/>
    <path class="cls-2" d="M56.1,79.8c1-.4,2-.8,3.1-1.2l2.2-6.2h-7.7c.2-.2.4-.3.6-.4,2.8-1.1,5.6-2.1,8.3-3.2l1.7-4.9h-10.7c1.7-.7,3.3-1.4,5-2-3.7,0-7.3,0-11,0h-.5c-2,.8-4,1.5-6.1,2.3l1.2,3.9h10.4c-.2.2-.5.3-.7.4-2.9,1.1-5.7,2.2-8.6,3.3l1.5,4.8h7.8c-.2.2-.5.3-.7.4-2.1.8-4.1,1.6-6.2,2.4l1.7,5.6h9.4l1.4-4h-4.7c.8-.5,1.6-.8,2.5-1.1h.1Z"/>
  </g>
</svg>