<?xml version="1.0" encoding="UTF-8"?>
<svg id="Layer_1" data-name="Layer 1" xmlns="http://www.w3.org/2000/svg" version="1.1" viewBox="0 0 612 792">
  <defs>
    <style>
      .cls-1 {
        fill: #fff;
        stroke-width: 0px;
      }
    </style>
  </defs>
  <path class="cls-1" d="M77.49,404.98c0,14.1-10.05,22.4-22.76,22.4h-19.73v24.64h-8.32v-69.41h28.05c12.7,0,22.76,8.26,22.76,22.37ZM69.17,404.98c0-8.92-5.9-14.31-14.5-14.31h-19.68v28.62h19.68c8.59,0,14.5-5.72,14.5-14.31Z"/>
  <path class="cls-1" d="M96.2,377.28v102.45h-8.33v-102.45h8.33Z"/>
  <path class="cls-1" d="M154.85,398.63v53.4h-7.59s-.74-7.14-.74-10.56v-5.82c-1.92,8.84-6.85,17.44-17.88,17.44-12.47,0-22.96-11.55-22.96-27.65s10.49-27.87,24.04-27.87c10.36,0,14.97,6.22,16.8,15.19v-14.13h8.33ZM146.52,425.44c0-11.78-5.19-19.64-15.84-19.64s-16.69,8.17-16.69,19.64,7.03,19.53,16.69,19.53c10.82,0,15.84-8.83,15.84-19.53Z"/>
  <path class="cls-1" d="M210.36,398.63l-29.48,74.75h-8.82l9.6-22.1-20.34-52.65h8.85l15.74,42.31,15.6-42.31h8.85Z"/>
  <path class="cls-1" d="M262.25,407.79c-5.13,0-10.48-2.03-14.61-4.09,5.68,4.06,8.31,9.96,8.31,17.05,0,14.34-10.19,22.79-21.66,22.79-7.65.45-12.02,1.24-12.02,4.81,0,2.21,1.62,3.68,4.9,3.68h10.79c10.98,0,20.19,4.06,20.19,16.87v10.83h-8.33v-8.71c0-7.51-3.93-10.86-11.74-10.86h-10.38c-9.37,0-13.75-3.31-13.75-9.07,0-6.98,6.48-9.16,12.46-8.98-7.86-2.98-13.96-10.46-13.96-21.33,0-14.24,10.28-23.21,21.84-23.21,2.28,0,4.51.37,6.62,1.08l21.35-.09v9.23ZM247.61,420.78c0-9.52-6.41-15.01-13.33-15.01s-13.49,5.41-13.49,15.01,6.49,14.84,13.49,14.84,13.33-5.24,13.33-14.84Z"/>
  <path class="cls-1" d="M294.76,397.57v8.6c-11.47,0-15.64,10.27-16.95,14.98v30.87h-8.33v-53.4h8.33v14.51c1.47-5.95,5.87-15.57,16.95-15.57Z"/>
  <path class="cls-1" d="M297.86,425.43c0-17.05,12.33-27.87,25.85-27.87s25.64,10.82,25.64,27.87-12.22,27.65-25.64,27.65-25.85-10.5-25.85-27.65ZM341.03,425.43c0-12.44-8.65-19.74-17.32-19.74s-17.53,7.19-17.53,19.74,8.76,19.53,17.53,19.53,17.32-6.98,17.32-19.53Z"/>
  <path class="cls-1" d="M402.19,398.63v53.4h-8.33v-17.77c-1.35,6.95-5.28,18.83-17.92,18.83-8.2,0-18.37-4.02-18.37-18.88v-35.58h8.33v33.45c0,9.58,5.01,12.57,11.65,12.57,11.21,0,15.08-9.86,16.32-14.77v-31.25h8.33Z"/>
  <path class="cls-1" d="M457.82,416.24v63.57h-8.33v-61.45c0-8.18-3.87-12.35-11.43-12.35s-14.5,5.81-16.53,14.33v31.69h-8.33v-53.4h8.33v15.24c2.44-9.99,9.5-16.3,18.11-16.3,11.35,0,18.18,7.12,18.18,18.67Z"/>
  <path class="cls-1" d="M515.19,377.24v74.78h-7.59s-.74-7.14-.74-10.56v-5.82c-1.92,8.84-6.85,17.44-17.88,17.44-12.79,0-22.96-11.55-22.96-27.65s9.63-27.87,22.96-27.87c11.18,0,16.01,6.29,17.88,15.33v-35.65h8.33ZM506.86,425.44c0-11.78-5.19-19.75-15.84-19.75s-16.69,8.28-16.69,19.75,7.03,19.53,16.69,19.53c10.82,0,15.84-8.83,15.84-19.53Z"/>
  <g>
    <path class="cls-1" d="M554.62,410.86c-7.61,0-12.09-5.43-12.09-12.29v-10.65h-13.31v-4.49h37.48v15.14c0,6.86-4.46,12.29-12.08,12.29ZM554.62,406.37c4.81,0,7.73-3.19,7.73-7.83v-10.62h-15.45v10.62c0,4.64,3.09,7.83,7.73,7.83Z"/>
    <path class="cls-1" d="M558.06,439.66h-28.83v-4.1s3.86-.4,5.7-.4h3.14c-4.77-1.04-9.42-3.7-9.42-9.66,0-6.73,6.24-12.4,14.93-12.4s15.05,5.66,15.05,12.98c0,5.59-3.36,8.08-8.2,9.07h7.63v4.5ZM543.58,435.16c6.36,0,10.6-2.81,10.6-8.55s-4.41-9.01-10.6-9.01-10.55,3.8-10.55,9.01c0,5.84,4.77,8.55,10.55,8.55Z"/>
    <path class="cls-1" d="M569.58,450.81h-40.36v-4.5h40.36v4.5Z"/>
  </g>
  <g>
    <path class="cls-1" d="M532.85,345.87v17.56h24.83c0-.37,0-.71,0-1.05,0-5.41,0-10.82-.01-16.24,0-.61.11-1.03.67-1.43,1.74-1.23,2.35-3.01,2.35-5.09-.02-8.68,0-17.36,0-26.04,0-.41,0-.83,0-1.31h5.82c0,.42,0,.85,0,1.29,0,2.69.02,5.38-.01,8.07,0,.63.16.87.83.97,5.82.87,11.63,1.78,17.43,2.71.25.04.62.45.63.7.04,2.59.07,5.19,0,7.78-.09,3.03-2.55,5.41-5.59,5.48-1.21.03-2.43,0-3.8,0v1.16c0,8.52,0,17.04,0,25.56,0,3.23-1.78,5.47-4.75,6.07-.37.07-.76.09-1.15.09-13.32,0-26.65,0-39.97,0-3.27,0-5.8-2.21-5.89-5.46-.13-5.12-.13-10.25,0-15.37.08-3.18,2.62-5.41,5.81-5.46.89-.02,1.79,0,2.82,0Z"/>
    <path class="cls-1" d="M551.86,357.71h-13.2v-11.76h13.2v11.76Z"/>
    <path class="cls-1" d="M522.57,342.81c-3.3,2.89-4.5,6.54-4.07,10.82-.31.05-.52.11-.73.11-1.73,0-3.46.02-5.18,0-1.94-.03-3.53-1.28-4.02-3.1-.48-1.77.29-3.63,1.84-4.69.4-.27.75-.73.95-1.18,1.06-2.44,2.88-3.9,5.5-4.21,2.23-.27,4.12.54,5.71,2.25Z"/>
  </g>
</svg>